<svg xmlns="http://www.w3.org/2000/svg" width="1920" height="159" fill="none" viewBox="0 0 1920 159"><rect width="158.191" height="511" x="511" fill="#272727" transform="rotate(90 511 0)"/><rect width="6.841" height="511" x="511" y="3.762" fill="#fff" transform="rotate(90 511 3.76245)"/><rect width="6.841" height="511" x="511" y="146.562" fill="#fff" transform="rotate(90 511 146.562)"/><rect width="9.406" height="74.906" x="511" y="74.393" fill="#FFC700" transform="rotate(90 511 74.3926)"/><rect width="9.406" height="74.906" x="394.708" y="74.393" fill="#FFC700" transform="rotate(90 394.708 74.3926)"/><rect width="9.406" height="74.906" x="278.416" y="74.393" fill="#FFC700" transform="rotate(90 278.416 74.3926)"/><rect width="9.406" height="74.906" x="162.124" y="74.393" fill="#FFC700" transform="rotate(90 162.124 74.3926)"/><rect width="9.406" height="45.833" x="45.832" y="74.393" fill="#FFC700" transform="rotate(90 45.832 74.3926)"/><rect width="158.191" height="511" x="985" fill="#272727" transform="rotate(90 985 0)"/><rect width="6.841" height="511" x="985" y="3.762" fill="#fff" transform="rotate(90 985 3.76245)"/><rect width="6.841" height="511" x="985" y="146.562" fill="#fff" transform="rotate(90 985 146.562)"/><rect width="9.406" height="74.906" x="985" y="74.393" fill="#FFC700" transform="rotate(90 985 74.3926)"/><rect width="9.406" height="74.906" x="868.708" y="74.393" fill="#FFC700" transform="rotate(90 868.708 74.3926)"/><rect width="9.406" height="74.906" x="752.416" y="74.393" fill="#FFC700" transform="rotate(90 752.416 74.3926)"/><rect width="9.406" height="74.906" x="636.124" y="74.393" fill="#FFC700" transform="rotate(90 636.124 74.3926)"/><rect width="9.406" height="45.833" x="519.832" y="74.393" fill="#FFC700" transform="rotate(90 519.832 74.3926)"/><rect width="158.191" height="511" x="1459" fill="#272727" transform="rotate(90 1459 0)"/><rect width="6.841" height="511" x="1459" y="3.762" fill="#fff" transform="rotate(90 1459 3.76245)"/><rect width="6.841" height="511" x="1459" y="146.562" fill="#fff" transform="rotate(90 1459 146.562)"/><rect width="9.406" height="74.906" x="1459" y="74.393" fill="#FFC700" transform="rotate(90 1459 74.3926)"/><rect width="9.406" height="74.906" x="1342.71" y="74.393" fill="#FFC700" transform="rotate(90 1342.71 74.3926)"/><rect width="9.406" height="74.906" x="1226.42" y="74.393" fill="#FFC700" transform="rotate(90 1226.42 74.3926)"/><rect width="9.406" height="74.906" x="1110.12" y="74.393" fill="#FFC700" transform="rotate(90 1110.12 74.3926)"/><rect width="9.406" height="45.833" x="993.832" y="74.393" fill="#FFC700" transform="rotate(90 993.832 74.3926)"/><rect width="158.191" height="511" x="1920" fill="#272727" transform="rotate(90 1920 0)"/><rect width="6.841" height="511" x="1920" y="3.762" fill="#fff" transform="rotate(90 1920 3.76245)"/><rect width="6.841" height="511" x="1920" y="146.562" fill="#fff" transform="rotate(90 1920 146.562)"/><rect width="9.406" height="74.906" x="1920" y="74.393" fill="#FFC700" transform="rotate(90 1920 74.3926)"/><rect width="9.406" height="74.906" x="1803.71" y="74.393" fill="#FFC700" transform="rotate(90 1803.71 74.3926)"/><rect width="9.406" height="74.906" x="1687.42" y="74.393" fill="#FFC700" transform="rotate(90 1687.42 74.3926)"/><rect width="9.406" height="74.906" x="1571.12" y="74.393" fill="#FFC700" transform="rotate(90 1571.12 74.3926)"/><rect width="9.406" height="45.833" x="1454.83" y="74.393" fill="#FFC700" transform="rotate(90 1454.83 74.3926)"/></svg>